<?xml version="1.0" encoding="UTF-8"?>
<svg id="Layer_1" data-name="Layer 1" xmlns="http://www.w3.org/2000/svg" xmlns:xlink="http://www.w3.org/1999/xlink" viewBox="0 0 731.38 720.6">
  <defs>
    <style>
      .cls-1 {
        fill: url(#linear-gradient);
      }
    </style>
    <linearGradient id="linear-gradient" x1="52.53" y1="179.21" x2="682.63" y2="543" gradientUnits="userSpaceOnUse">
      <stop offset="0" stop-color="#6ee73f"/>
      <stop offset=".5" stop-color="#008686"/>
      <stop offset="1" stop-color="#9300bf"/>
    </linearGradient>
  </defs>
  <path class="cls-1" d="M609.6,629.88c-170.5,153.9-452.21,104.82-561.97-93.06C-113.05,257.3,159.6-72.59,465.94,14.11c61.32,16.64,119,50.46,161.95,94.5,142.24,142.48,139.4,386.44-18.13,521.13l-.16.14ZM392.72,425.05c-1.12-1.05-2.8-4.32-3.71-6.32-8.24-18.42-14.39-39.08-22.03-58.09-2.57-6.13-4.01-12.49-4.34-19.15-2.28-33.82-11.28-72.03.71-104.96,29.27-77.59,130.43-53.96,172.4.98,19.22,24.06,28.91,53.08,36.87,82.29,9.46,33.58,16.54,68.98,37.82,97.46,23.83,31.14,61.63,33.38,75.24-.1,3.14-7.38,5.03-15.31,6.24-22.88,12.75-86.61-22.58-180.04-79.05-244.75C460.88-24.72,176.17,13.65,74.09,219.79c-2.97,6.35-2.67,7.86,4.26,2.18,58.77-47.41,142.45-9.99,174.96,52.05,19.01,33.64,25.53,71.5,39.59,107.2,5.42,13.64,13.29,29.57,27.88,34.4,22.41,6.63,35.44-11.77,38.21-32.98.74-1.88.35-18.23,4.22-11.49,14.1,37.48,32.77,79.76,14.92,116.71-27.69,56.43-101.3,52.67-139.36,10.61-52.95-56.37-49.45-169.4-103.94-210.35-24.46-18.26-55.23-20.75-73.57,2.16-14.27,16.4-21.19,43.53-21.58,67.03-1.15,341.47,462.34,449.01,619.52,147.08,5.82-11.3-1.47-6.09-8.7-2.91-3.22,1.42-6.55,2.65-9.92,3.66-32.41,9.92-66.96-2.28-90.7-25.26-41.45-39.7-47.98-99.6-70.75-149.83-4.01-8.52-9.15-17.75-15.33-25.13-4.43-5.21-8.95-9.36-14.71-11.97-9.04-3.9-20.32-4.17-28.46,1.41-18.82,13.63-21.19,48.67-23.9,72.15-.54,11.3-1.98,43.68-2.61,56.2-.16,1.12-.15,3.19-1.38,2.4l-.05-.04Z"/>
</svg>